<svg version="1.1" viewBox="0.0 0.0 558.3412073490814 186.88976377952756" fill="none" stroke="none" stroke-linecap="square" stroke-miterlimit="10" xmlns:xlink="http://www.w3.org/1999/xlink" xmlns="http://www.w3.org/2000/svg"><clipPath id="p.0"><path d="m0 0l558.3412 0l0 186.88977l-558.3412 0l0 -186.88977z" clip-rule="nonzero"/></clipPath><g clip-path="url(#p.0)"><path fill="#000000" fill-opacity="0.0" d="m0 0l558.3412 0l0 186.88977l-558.3412 0z" fill-rule="evenodd"/><path fill="#000000" fill-opacity="0.0" d="m17.312336 2.956693l523.71655 0l0 180.97638l-523.71655 0z" fill-rule="evenodd"/><path fill="#4a86e8" d="m102.01546 104.69107q3.25 0 4.859375 2.59375q1.625 2.578125 1.625 6.171875q0 5.875 -3.09375 9.953125q-6.65625 8.640625 -16.5 13.59375q-9.84375 4.953125 -22.09375 4.953125q-9.609371 0 -16.890621 -2.984375q-7.28125 -2.984375 -11.3125 -8.390625q-4.03125 -5.40625 -4.03125 -12.1875q0 -9.96875 7.65625 -17.34375q7.65625 -7.375 9.515625 -8.25l-8.84375 0.21875q-4.421875 0.203125 -6.640625 -2.984375q-2.21875 -3.1875 -2.21875 -7.109375q0 -4.0 2.140625 -7.4375q2.15625 -3.453125 6.359375 -3.453125q6.25 0 16.609375 0.9375q2.109375 0.125 7.718746 0.53125q5.625 0.390625 9.40625 0.390625q0.9375 0 4.40625 -0.984375q0.671875 -0.140625 2.734375 -0.703125q2.078125 -0.578125 3.78125 -0.578125q3.53125 0 5.609375 2.796875q2.09375 2.78125 2.09375 7.5625q0 5.265625 -2.53125 8.3125q-2.53125 3.03125 -7.40625 5.15625q-11.828125 5.09375 -19.140625 10.515625q-7.312496 5.40625 -7.312496 9.890625q0 2.28125 2.5 4.03125q2.515625 1.734375 8.468746 1.734375q6.8125 0 13.921875 -3.453125q7.109375 -3.46875 12.875 -10.609375q2.46875 -2.875 5.734375 -2.875zm52.25293 0q3.265625 0 4.875 2.59375q1.625 2.578125 1.625 6.171875q0 6.359375 -3.1875 10.046875q-5.234375 6.375 -14.78125 11.75q-9.546875 5.375 -20.53125 5.375q-15.125 0 -23.671875 -8.40625q-8.546875 -8.40625 -8.546875 -22.765625q0 -9.84375 4.171875 -18.390625q4.171875 -8.546875 11.6875 -13.65625q7.515625 -5.109375 17.03125 -5.109375q8.875 0 14.34375 5.40625q5.484375 5.390625 5.484375 14.421875q0 10.34375 -7.28125 17.625q-7.265625 7.265625 -20.265625 10.46875q0.828125 1.53125 8.515625 1.53125q5.296875 0 12.421875 -3.890625q7.125 -3.90625 12.390625 -10.3125q2.4375 -2.859375 5.71875 -2.859375zm-33.59375 -13.796875q-3.359375 0 -6.171875 4.734375q-2.796875 4.734375 -2.796875 12.09375l-2.5625 0q6.40625 -4.140625 10.1875 -7.25q3.78125 -3.109375 3.78125 -6.75q0 -1.453125 -0.625 -2.140625q-0.625 -0.6875 -1.8125 -0.6875zm35.99173 49.734375q-6.953125 0 -9.453125 -6.453125q-2.5 -6.46875 -2.5 -18.71875q0 -17.75 5.046875 -33.765625q1.5 -4.796875 4.984375 -7.09375q3.5 -2.296875 9.265625 -2.296875q3.4375 0 5.5 1.28125q2.0625 1.28125 2.0625 4.671875q0 2.5 -2.09375 10.296875q-1.296875 5.25 -2.09375 9.140625q-0.78125 3.890625 -4.046875 9.375q1.96875 -12.828125 7.703125 -20.40625q5.75 -7.578125 11.578125 -10.96875q5.828125 -3.390625 10.984375 -3.390625q11.4375 0 11.4375 11.421875q0 5.5 -3.0 19.390625q-2.46875 11.3125 -2.46875 14.75q0 2.5625 1.09375 2.5625q1.625 0 4.8125 -2.84375q3.203125 -2.859375 9.21875 -10.03125q2.421875 -2.859375 5.703125 -2.859375q3.265625 0 4.875 2.59375q1.625 2.578125 1.625 6.171875q0 6.359375 -3.171875 10.046875q-5.96875 7.328125 -13.09375 12.234375q-7.109375 4.890625 -16.359375 4.890625q-8.046875 0 -12.28125 -4.796875q-4.21875 -4.796875 -4.21875 -13.3125q0 -4.0 1.90625 -13.875q1.6875 -8.140625 1.6875 -11.046875q1.296875 -0.671875 1.296875 0.625q-0.296875 0 -2.9375 3.78125q-2.640625 3.765625 -5.8125 10.875q-3.15625 7.09375 -5.09375 14.953125q-1.625 6.921875 -4.203125 9.859375q-2.5625 2.9375 -7.953125 2.9375zm81.47453 2.921875q-7.96875 0 -12.5 -3.953125q-4.53125 -3.953125 -4.53125 -9.203125q0 -4.609375 3.34375 -7.953125q3.34375 -3.34375 9.421875 -3.34375q1.921875 0 4.328125 0.34375q2.421875 0.328125 2.171875 2.03125q-1.78125 -1.625 -3.015625 -4.296875q-1.21875 -2.6875 -3.234375 -5.390625q-2.015625 -2.71875 -1.328125 -3.1875q-2.203125 5.96875 -6.40625 11.34375q-4.1875 5.359375 -9.109375 10.15625q-3.203125 3.1875 -7.015625 3.1875q-3.375 0 -5.46875 -2.390625q-2.09375 -2.40625 -2.09375 -5.703125q0 -3.671875 2.5 -6.6875l1.734375 -2.125q7.21875 -8.921875 10.84375 -14.625q2.171875 -3.71875 5.1875 -10.09375q3.03125 -6.390625 5.953125 -13.296875q3.265625 -7.53125 13.078125 -7.53125q4.328125 0 6.875 1.15625q2.5625 1.15625 2.5625 4.40625q0 1.21875 -0.640625 3.28125q-0.625 2.0625 -1.671875 4.0q-2.09375 4.171875 -2.09375 6.84375q0 1.25 1.15625 3.25q1.15625 1.984375 3.984375 5.4375q4.40625 5.796875 6.828125 10.140625q2.4375 4.328125 2.4375 9.71875q0 1.484375 -1.3125 1.484375q3.125 -2.609375 11.484375 -12.984375q2.4375 -2.875 5.71875 -2.875q3.265625 0 4.875 2.59375q1.625 2.578125 1.625 6.171875q0 6.015625 -3.140625 9.984375q-7.046875 8.75 -13.65625 12.03125q-6.609375 3.265625 -15.1875 3.515625q-5.359375 4.5625 -13.703125 4.5625zm57.587402 -2.921875q-14.21875 0 -22.296875 -8.21875q-8.0625 -8.21875 -8.0625 -21.484375q0 -11.484375 4.59375 -20.234375q4.59375 -8.75 12.046875 -13.5625q7.453125 -4.828125 15.71875 -4.828125q8.546875 0 13.390625 5.171875q4.84375 5.15625 4.84375 13.046875q0 6.421875 -3.09375 11.265625q-3.09375 4.84375 -8.59375 4.84375q-3.5 0 -5.9375 -1.90625q-2.4375 -1.921875 -2.4375 -5.390625q0 -1.234375 0.296875 -2.609375q0.3125 -1.390625 0.484375 -2.046875q0.546875 -1.65625 0.546875 -2.953125q0 -0.65625 -0.078125 -0.734375q-0.078125 -0.09375 -0.484375 -0.09375q-1.890625 0 -3.9375 2.09375q-2.03125 2.09375 -3.46875 6.25q-1.421875 4.15625 -1.421875 9.28125q0 12.703125 10.703125 12.703125q4.71875 0 10.515625 -3.359375q5.796875 -3.359375 11.640625 -10.3125q2.421875 -2.859375 5.703125 -2.859375q3.265625 0 4.875 2.59375q1.625 2.578125 1.625 6.171875q0 6.015625 -3.140625 10.0q-6.65625 8.21875 -15.96875 12.703125q-9.296875 4.46875 -18.0625 4.46875zm33.06476 0q-6.953125 0 -9.453125 -6.453125q-2.5 -6.46875 -2.5 -18.71875q0 -17.75 5.046875 -33.765625q1.5 -4.796875 4.984375 -7.09375q3.5 -2.296875 9.265625 -2.296875q3.4375 0 5.5 1.28125q2.0625 1.28125 2.0625 4.671875q0 2.5 -2.09375 10.296875q-1.296875 5.25 -2.09375 9.140625q-0.78125 3.890625 -4.046875 9.375q1.96875 -12.828125 7.703125 -20.40625q5.75 -7.578125 11.578125 -10.96875q5.828125 -3.390625 10.984375 -3.390625q11.4375 0 11.4375 11.421875q0 1.984375 -1.25 8.921875q-1.015625 5.078125 -1.015625 6.140625q0 1.90625 0.5625 1.90625q2.59375 0 7.640625 -5.046875q2.546875 -2.546875 5.5625 -2.546875q3.234375 0 4.859375 2.5q1.640625 2.5 1.640625 5.859375q0 6.046875 -3.4375 9.65625q-4.03125 4.171875 -9.53125 7.171875q-5.5 3.0 -11.796875 3.0q-8.203125 0 -12.6875 -4.390625q-4.484375 -4.40625 -4.484375 -11.703125q0 -2.28125 0.4375 -4.40625q0.234375 -2.40625 0.234375 -3.1875q1.296875 -0.671875 1.296875 0.625q-0.59375 0 -3.359375 3.78125q-2.765625 3.78125 -5.859375 10.875q-3.09375 7.078125 -5.03125 14.953125q-1.625 6.921875 -4.203125 9.859375q-2.5625 2.9375 -7.953125 2.9375zm68.66434 -71.609375q-6.671875 0 -10.3125 -3.375q-3.640625 -3.3750038 -3.640625 -9.250004q0 -5.953125 4.53125 -9.828125q4.546875 -3.875 11.03125 -3.875q5.890625 0 9.859375 3.109375q3.96875 3.109375 3.96875 8.859375q0 6.5625 -4.328125 10.468754q-4.3125 3.890625 -11.109375 3.890625zm-1.0625 71.609375q-10.1875 0 -14.75 -7.109375q-4.546875 -7.109375 -4.546875 -18.0625q0 -6.21875 1.5625 -15.8125q1.5625 -9.59375 4.015625 -17.890625q1.4375 -5.109375 4.15625 -7.28125q2.734375 -2.171875 8.09375 -2.171875q9.5625 0 9.5625 7.296875q0 3.609375 -2.59375 16.046875q-3.125 14.375 -3.125 19.28125q0 3.34375 0.53125 4.421875q0.546875 1.078125 1.359375 1.078125q1.328125 0 4.453125 -2.90625q3.140625 -2.90625 9.046875 -9.96875q2.421875 -2.859375 5.703125 -2.859375q3.265625 0 4.875 2.59375q1.625 2.578125 1.625 6.171875q0 6.359375 -3.171875 10.046875q-14.015625 17.125 -26.796875 17.125zm87.32999 -47.140625q3.390625 0 4.875 2.765625q1.5 2.765625 1.5 6.140625q0 4.0 -1.359375 6.609375q-1.34375 2.609375 -4.390625 3.609375q-8.359375 2.921875 -16.28125 3.25q-2.390625 9.859375 -10.5 17.3125q-8.09375 7.453125 -18.109375 7.453125q-15.03125 0 -21.765625 -11.265625q-6.734375 -11.265625 -6.734375 -31.5q0 -17.484375 4.34375 -38.031254q4.34375 -20.5625 13.046875 -35.640625q8.71875 -15.093751 21.640625 -15.093751q7.5625 0 11.96875 6.21875q4.40625 6.203126 4.40625 15.484376q0 11.437498 -4.3125 22.687498q-4.296875 11.250004 -10.859375 19.343754q4.84375 0.359375 11.078125 7.875q6.25 7.5 7.125 15.546875q3.359375 -0.21875 11.6875 -2.390625q1.125 -0.375 2.640625 -0.375zm-36.796875 -65.65625q-0.796875 0 -3.53125 6.937498q-2.734375 6.9375 -5.359375 20.34375q-2.625 13.390629 -2.875 16.359379q2.484375 -4.546875 7.609375 -16.562504q5.125 -12.015625 5.125 -21.046875q0 -3.687498 -0.484375 -4.906248q-0.484375 -1.234375 -0.484375 -1.125zm-6.9375 93.125q2.921875 0 5.421875 -2.71875q2.515625 -2.71875 3.171875 -6.6875q-3.296875 -2.21875 -5.796875 -7.359375q-2.484375 -5.15625 -2.484375 -10.859375q0 -2.109375 2.890625 -4.734375l0 2.421875q-4.0 0 -7.015625 4.453125q-3.015625 4.4375 -3.015625 12.65625q0 6.703125 2.1875 9.765625q2.203125 3.0625 4.640625 3.0625zm83.59549 -12.265625q3.265625 0 4.875 2.59375q1.625 2.578125 1.625 6.171875q0 5.625 -2.71875 9.78125q-4.125 6.328125 -10.8125 9.859375q-6.671875 3.53125 -15.765625 3.53125q-14.015625 0 -21.859375 -8.515625q-7.828125 -8.515625 -7.828125 -22.65625q0 -9.84375 4.171875 -18.390625q4.171875 -8.546875 11.6875 -13.65625q7.515625 -5.109375 17.03125 -5.109375q8.875 0 14.34375 5.40625q5.484375 5.390625 5.484375 14.421875q0 10.34375 -7.28125 17.625q-7.265625 7.265625 -20.453125 10.484375q0.78125 1.515625 6.703125 1.515625q4.578125 0 7.578125 -2.15625q3.015625 -2.15625 7.453125 -7.859375q2.4375 -3.046875 5.765625 -3.046875zm-21.859375 -17.796875q-3.359375 0 -6.171875 4.734375q-2.796875 4.734375 -2.796875 12.09375l-2.5625 0q6.40625 -4.140625 10.1875 -7.25q3.78125 -3.109375 3.78125 -6.75q0 -1.453125 -0.625 -2.140625q-0.625 -0.6875 -1.8125 -0.6875z" fill-rule="nonzero"/></g></svg>